# xmcd CD database file
#
# Track frame offsets:
#	150
#	12707
#	27780
#	42589
#	57375
#	71060
#	83717
#	103812
#	116297
#	134672
#	150335
#	163557
#	177327
#
# Disc length: 2570 seconds
#
# Revision: 0
# Processed by: cddbd v1.5.1PL2 Copyright (c) Steve Scherf et al.
# Submitted via: CDex 1.51
#
DISCID=ae0a080d
DTITLE=Dale Cole - Rock on Solid Ground
DYEAR=1996
DGENRE=Country
TTITLE0=Rock on Solid Ground
TTITLE1=Where There's Smoke
TTITLE2=Neon Blindness Blues
TTITLE3=Silent Night
TTITLE4=Southern Drawl
TTITLE5=I've Caught You in a Memory Again
TTITLE6=Burnin' Every Bridge on Memory Lane
TTITLE7=I've Fallen'
TTITLE8=Anything for You
TTITLE9=Blue Jean Queen
TTITLE10=As If I Didn't Know
TTITLE11=Memory Bound
TTITLE12=Love Awhile
EXTD=YEAR: 1996
EXTT0=
EXTT1=
EXTT2=
EXTT3=
EXTT4=
EXTT5=
EXTT6=
EXTT7=
EXTT8=
EXTT9=
EXTT10=
EXTT11=
EXTT12=
PLAYORDER=
